<svg width="593" height="87" viewBox="0 0 593 87" fill="none" xmlns="http://www.w3.org/2000/svg">
<path fill-rule="evenodd" clip-rule="evenodd" d="M199.502 0.401978C202.588 0.401978 204.961 1.05464 206.622 2.35998C208.343 3.66531 209.203 5.56398 209.203 8.05598C209.203 10.548 208.343 12.4466 206.622 13.752C204.961 15.0573 202.588 15.71 199.502 15.71C196.358 15.71 193.955 15.0573 192.293 13.752C190.632 12.4466 189.801 10.548 189.801 8.05598C189.801 5.56398 190.632 3.66531 192.293 2.35998C193.955 1.05464 196.358 0.401978 199.502 0.401978ZM208.046 61.723C208.046 64.1557 208.402 65.8466 209.114 66.796C209.886 67.686 211.191 68.131 213.03 68.131V70C206.622 69.7626 202.41 69.644 200.392 69.644C198.375 69.644 193.925 69.7626 187.042 70V68.131C188.882 68.131 190.157 67.686 190.869 66.796C191.641 65.8466 192.026 64.1557 192.026 61.723V33.51C192.026 30.7806 191.641 28.793 190.869 27.547C190.157 26.301 188.882 25.678 187.042 25.678V23.809C188.941 23.987 190.78 24.076 192.56 24.076C198.731 24.076 203.893 23.6606 208.046 22.83V61.723ZM46.348 28.259C43.5 24.4616 39.762 22.563 35.134 22.563C28.8447 22.563 24.3353 24.788 21.606 29.238V22.919C17.4527 23.7496 12.2907 24.165 6.11999 24.165C4.28066 24.165 2.44132 24.076 0.60199 23.898V25.767C2.44132 25.767 3.71699 26.39 4.42899 27.636C5.20032 28.882 5.58599 30.8696 5.58599 33.599V77.832C5.58599 80.2646 5.20032 81.926 4.42899 82.816C3.71699 83.7653 2.44132 84.24 0.60199 84.24V86.109C7.00999 85.8717 11.104 85.753 12.884 85.753C14.9607 85.753 19.559 85.842 26.679 86.02L29.26 86.109V84.24C26.7087 84.24 24.7803 83.706 23.475 82.638C22.229 81.57 21.606 79.6713 21.606 76.942V69.555C23.6827 70.6823 26.4417 71.246 29.883 71.246C36.113 71.246 41.1267 69.2287 44.924 65.194C48.7213 61.1 50.62 54.336 50.62 44.902C50.62 37.604 49.196 32.0563 46.348 28.259ZM31.752 63.325C30.328 66.8256 27.9843 68.576 24.721 68.576C23.4157 68.576 22.3773 68.3387 21.606 67.864V33.599C21.606 31.7596 22.229 30.2466 23.475 29.06C24.7803 27.814 26.2933 27.191 28.014 27.191C29.8533 27.191 31.307 28.6743 32.375 31.641C33.443 34.5483 33.977 39.651 33.977 46.949C33.977 54.3063 33.2353 59.765 31.752 63.325ZM95.1471 28.348C91.1718 24.4913 85.5351 22.563 78.2371 22.563C70.9391 22.563 65.3024 24.4913 61.3271 28.348C57.3518 32.1453 55.3641 38.3456 55.3641 46.949C55.3641 55.5523 57.3518 61.7526 61.3271 65.55C65.3024 69.3473 70.9391 71.246 78.2371 71.246C85.5351 71.246 91.1718 69.3473 95.1471 65.55C99.1224 61.7526 101.11 55.5523 101.11 46.949C101.11 38.3456 99.1224 32.1453 95.1471 28.348ZM73.6981 29.95C74.8254 26.212 76.3384 24.343 78.2371 24.343C80.1358 24.343 81.6488 26.212 82.7761 29.95C83.9034 33.688 84.4671 39.3543 84.4671 46.949C84.4671 54.5436 83.9034 60.21 82.7761 63.948C81.6488 67.6266 80.1358 69.466 78.2371 69.466C76.3384 69.466 74.8254 67.6266 73.6981 63.948C72.5708 60.21 72.0071 54.5436 72.0071 46.949C72.0071 39.3543 72.5708 33.688 73.6981 29.95ZM123.553 22.563C125.867 22.563 128.033 22.83 130.05 23.364C132.127 23.8386 133.699 24.3726 134.767 24.966C135.42 25.322 135.954 25.5 136.369 25.5C137.615 25.5 138.357 24.5506 138.594 22.652H140.374C140.137 25.7373 140.018 31.0773 140.018 38.672H138.238C137.764 34.756 136.636 31.463 134.856 28.793C133.136 26.0636 130.614 24.699 127.291 24.699C125.808 24.699 124.562 25.144 123.553 26.034C122.545 26.924 122.04 28.1403 122.04 29.683C122.04 31.641 122.693 33.3913 123.998 34.934C125.304 36.4173 127.351 38.2566 130.139 40.452C130.258 40.5113 131.118 41.1936 132.72 42.499C136.043 45.2283 138.476 47.661 140.018 49.797C141.561 51.8736 142.332 54.4546 142.332 57.54C142.332 60.1507 141.531 62.524 139.929 64.66C138.327 66.7366 136.132 68.3683 133.343 69.555C130.614 70.6823 127.618 71.246 124.354 71.246C120.616 71.246 117.561 70.5043 115.187 69.021C114.179 68.487 113.348 68.1013 112.695 67.864C112.043 67.6266 111.39 67.508 110.737 67.508C109.61 67.508 108.779 68.5463 108.245 70.623H106.465C106.703 67.241 106.821 61.3076 106.821 52.823H108.601C109.135 57.6883 110.441 61.6043 112.517 64.571C114.594 67.5377 117.205 69.021 120.349 69.021C121.833 69.021 123.049 68.6057 123.998 67.775C125.007 66.9443 125.511 65.728 125.511 64.126C125.511 62.4646 125.155 60.9813 124.443 59.676C123.791 58.3707 122.96 57.2136 121.951 56.205C121.002 55.137 119.43 53.624 117.234 51.666C114.742 49.352 112.844 47.5126 111.538 46.148C110.233 44.7833 109.106 43.211 108.156 41.431C107.266 39.5916 106.821 37.5743 106.821 35.379C106.821 32.8277 107.593 30.573 109.135 28.615C110.678 26.657 112.725 25.1736 115.276 24.165C117.828 23.097 120.587 22.563 123.553 22.563ZM171.14 23.364C169.123 22.83 166.957 22.563 164.643 22.563C161.676 22.563 158.917 23.097 156.366 24.165C153.815 25.1736 151.768 26.657 150.225 28.615C148.682 30.573 147.911 32.8277 147.911 35.379C147.911 37.5743 148.356 39.5916 149.246 41.431C150.195 43.211 151.323 44.7833 152.628 46.148C153.933 47.5126 155.832 49.352 158.324 51.666C160.519 53.624 162.092 55.137 163.041 56.205C164.05 57.2136 164.88 58.3707 165.533 59.676C166.245 60.9813 166.601 62.4646 166.601 64.126C166.601 65.728 166.097 66.9443 165.088 67.775C164.139 68.6057 162.922 69.021 161.439 69.021C158.294 69.021 155.684 67.5377 153.607 64.571C151.53 61.6043 150.225 57.6883 149.691 52.823H147.911C147.911 61.3076 147.792 67.241 147.555 70.623H149.335C149.869 68.5463 150.7 67.508 151.827 67.508C152.48 67.508 153.132 67.6266 153.785 67.864C154.438 68.1013 155.268 68.487 156.277 69.021C158.65 70.5043 161.706 71.246 165.444 71.246C168.707 71.246 171.704 70.6823 174.433 69.555C177.222 68.3683 179.417 66.7366 181.019 64.66C182.621 62.524 183.422 60.1507 183.422 57.54C183.422 54.4546 182.651 51.8736 181.108 49.797C179.565 47.661 177.133 45.2283 173.81 42.499C172.208 41.1936 171.348 40.5113 171.229 40.452C168.44 38.2566 166.393 36.4173 165.088 34.934C163.783 33.3913 163.13 31.641 163.13 29.683C163.13 28.1403 163.634 26.924 164.643 26.034C165.652 25.144 166.898 24.699 168.381 24.699C171.704 24.699 174.225 26.0636 175.946 28.793C177.726 31.463 178.853 34.756 179.328 38.672H181.108C181.108 31.0773 181.227 25.7373 181.464 22.652H179.684C179.447 24.5506 178.705 25.5 177.459 25.5C177.044 25.5 176.51 25.322 175.857 24.966C174.789 24.3726 173.217 23.8386 171.14 23.364ZM260.029 28.259C257.181 24.4616 253.443 22.563 248.815 22.563C242.526 22.563 238.017 24.788 235.287 29.238V0.401978C231.134 1.23265 225.972 1.64798 219.801 1.64798C217.962 1.64798 216.123 1.55898 214.283 1.38098V3.24998C216.123 3.24998 217.398 3.87298 218.11 5.11898C218.882 6.36498 219.267 8.35265 219.267 11.082V65.639C219.267 67.6563 219.06 69.288 218.644 70.534L219.89 71.424C220.721 70.6526 221.908 70.0297 223.45 69.555C224.993 69.0803 226.654 68.843 228.434 68.843C230.808 68.843 233.092 69.288 235.287 70.178C236.355 70.6527 237.512 70.9493 238.758 71.068C240.064 71.1867 241.666 71.246 243.564 71.246C249.794 71.246 254.808 69.2287 258.605 65.194C262.403 61.1 264.301 54.336 264.301 44.902C264.301 37.604 262.877 32.0563 260.029 28.259ZM247.658 46.949C247.658 61.9603 244.929 69.466 239.47 69.466C238.046 69.466 236.652 69.11 235.287 68.398V33.599C235.287 31.7596 235.91 30.2466 237.156 29.06C238.462 27.814 239.975 27.191 241.695 27.191C243.535 27.191 244.988 28.6743 246.056 31.641C247.124 34.5483 247.658 39.651 247.658 46.949ZM287.959 61.723C287.959 64.1557 288.315 65.8466 289.027 66.796C289.799 67.686 291.104 68.131 292.943 68.131V70C286.535 69.7626 282.323 69.644 280.305 69.644C278.288 69.644 273.838 69.7626 266.955 70V68.131C268.795 68.131 270.07 67.686 270.782 66.796C271.554 65.8466 271.939 64.1557 271.939 61.723V11.082C271.939 8.35265 271.554 6.36498 270.782 5.11898C270.07 3.87298 268.795 3.24998 266.955 3.24998V1.38098C268.795 1.55898 270.634 1.64798 272.473 1.64798C278.644 1.64798 283.806 1.23265 287.959 0.401978V61.723ZM326.189 57.7726L321 45V44.9857L314.314 29.06C314.077 28.5853 313.958 28.1106 313.958 27.636C313.958 26.8053 314.403 26.2713 315.293 26.034C316.243 25.7966 317.578 25.678 319.298 25.678V23.809C314.552 24.165 310.25 24.343 306.393 24.343C301.469 24.343 296.633 24.165 291.886 23.809V25.678C292.717 25.678 293.548 26.0043 294.378 26.657C295.268 27.3097 296.158 28.6446 297.048 30.662L317.785 76.497L317.34 78.01C315.798 82.7567 312.979 85.13 308.885 85.13C307.461 85.13 306.453 85.0707 305.859 84.952C307.758 84.3587 309.182 83.4093 310.131 82.104C311.14 80.858 311.644 79.523 311.644 78.099C311.644 75.963 310.932 74.3313 309.508 73.204C308.084 72.0767 306.126 71.513 303.634 71.513C301.024 71.513 298.917 72.136 297.315 73.382C295.713 74.628 294.912 76.2893 294.912 78.366C294.912 81.1546 296.188 83.2313 298.739 84.596C301.291 86.02 304.05 86.732 307.016 86.732C310.695 86.732 313.454 86.02 315.293 84.596C316.836 83.4093 318.141 81.2733 319.209 78.188L322.947 67.419L326.189 57.7726Z" fill="#AED0D2"/>
<path fill-rule="evenodd" clip-rule="evenodd" d="M493.53 57.6134L490.236 67.419L486.498 78.188C485.43 81.2733 484.124 83.4093 482.582 84.596C480.742 86.02 477.983 86.732 474.305 86.732C471.338 86.732 468.579 86.02 466.028 84.596C463.476 83.2313 462.201 81.1547 462.201 78.366C462.201 76.2893 463.002 74.628 464.604 73.382C466.206 72.136 468.312 71.513 470.923 71.513C473.415 71.513 475.373 72.0767 476.797 73.204C478.221 74.3313 478.933 75.963 478.933 78.099C478.933 79.523 478.428 80.858 477.42 82.104C476.47 83.4093 475.046 84.3587 473.148 84.952C473.741 85.0707 474.75 85.13 476.174 85.13C480.268 85.13 483.086 82.7567 484.629 78.01L485.074 76.497L464.337 30.662C463.447 28.6447 462.557 27.3097 461.667 26.657C460.836 26.0043 460.005 25.678 459.175 25.678V23.809C463.921 24.165 468.757 24.343 473.682 24.343C477.538 24.343 481.84 24.165 486.587 23.809V25.678C484.866 25.678 483.531 25.7967 482.582 26.034C481.692 26.2713 481.247 26.8053 481.247 27.636C481.247 28.1107 481.365 28.5853 481.603 29.06L491.771 53.2821L493.53 57.6134ZM410.445 61.723C410.445 64.1557 410.801 65.8467 411.513 66.796C412.284 67.686 413.59 68.131 415.429 68.131V70C409.021 69.7627 404.868 69.644 402.969 69.644C401.07 69.644 397.154 69.7627 391.221 70V68.131C392.408 68.131 393.238 67.686 393.713 66.796C394.188 65.906 394.425 64.215 394.425 61.723V32.798C394.425 30.8993 394.069 29.505 393.357 28.615C392.704 27.6657 391.607 27.191 390.064 27.191C388.521 27.191 387.097 27.8437 385.792 29.149C384.546 30.4543 383.775 31.997 383.478 33.777C383.597 35.201 383.656 36.4767 383.656 37.604V61.723C383.656 64.215 383.953 65.906 384.546 66.796C385.139 67.686 386.207 68.131 387.75 68.131V70C381.817 69.7627 377.96 69.644 376.18 69.644C374.281 69.644 370.365 69.7627 364.432 70V68.131C365.619 68.131 366.449 67.686 366.924 66.796C367.399 65.8467 367.636 64.1557 367.636 61.723V32.798C367.636 30.8993 367.369 29.505 366.835 28.615C366.301 27.6657 365.411 27.191 364.165 27.191C362.444 27.191 360.931 27.814 359.626 29.06C358.38 30.2467 357.757 31.7597 357.757 33.599V61.723C357.757 64.215 357.994 65.906 358.469 66.796C358.944 67.686 359.774 68.131 360.961 68.131V70C355.502 69.7627 351.883 69.644 350.103 69.644C348.086 69.644 343.636 69.7627 336.753 70V68.131C338.592 68.131 339.868 67.686 340.58 66.796C341.351 65.8467 341.737 64.1557 341.737 61.723V33.51C341.737 30.7807 341.351 28.793 340.58 27.547C339.868 26.301 338.592 25.678 336.753 25.678V23.809C338.652 23.987 340.491 24.076 342.271 24.076C348.442 24.076 353.604 23.6607 357.757 22.83V29.238C360.249 24.788 364.669 22.563 371.018 22.563C375.765 22.563 379.117 23.7497 381.075 26.123C381.965 27.191 382.618 28.5853 383.033 30.306C384.516 27.458 386.474 25.4703 388.907 24.343C391.399 23.1563 394.366 22.563 397.807 22.563C402.554 22.563 405.906 23.7497 407.864 26.123C408.754 27.191 409.407 28.6447 409.822 30.484C410.237 32.264 410.445 34.6373 410.445 37.604V61.723ZM428.958 70.623C425.161 70.623 422.283 69.6143 420.325 67.597C418.427 65.5203 417.477 62.9393 417.477 59.854C417.477 57.184 418.16 54.9887 419.524 53.268C420.948 51.488 422.61 50.1233 424.508 49.174C426.407 48.2247 428.869 47.2457 431.895 46.237C435.099 45.169 437.443 44.19 438.926 43.3C440.41 42.41 441.151 41.164 441.151 39.562V31.641C441.151 29.7423 440.677 28.0513 439.727 26.568C438.778 25.0847 437.146 24.343 434.832 24.343C432.993 24.343 431.332 24.8473 429.848 25.856C431.866 26.568 433.349 27.636 434.298 29.06C435.307 30.4247 435.811 31.9673 435.811 33.688C435.811 36.002 434.981 37.871 433.319 39.295C431.717 40.6597 429.759 41.342 427.445 41.342C425.131 41.342 423.292 40.63 421.927 39.206C420.622 37.7227 419.969 35.8537 419.969 33.599C419.969 31.819 420.414 30.2763 421.304 28.971C422.194 27.6657 423.589 26.479 425.487 25.411C428.81 23.5123 433.557 22.563 439.727 22.563C442.991 22.563 445.809 22.8893 448.182 23.542C450.556 24.1353 452.573 25.2923 454.234 27.013C455.421 28.259 456.192 29.8313 456.548 31.73C456.964 33.5693 457.171 36.1503 457.171 39.473V63.325C457.171 64.8083 457.26 65.817 457.438 66.351C457.676 66.885 458.061 67.152 458.595 67.152C459.011 67.152 459.456 67.0333 459.93 66.796C460.405 66.4993 460.85 66.173 461.265 65.817L462.155 67.33C459.604 69.5253 455.955 70.623 451.208 70.623C447.648 70.623 445.156 70.0297 443.732 68.843C442.308 67.597 441.537 65.9357 441.418 63.859C438.63 68.3683 434.476 70.623 428.958 70.623ZM437.858 63.503C439.104 63.503 440.202 62.9987 441.151 61.99V43.211C440.617 44.101 439.638 45.258 438.214 46.682C436.612 48.2247 435.396 49.7377 434.565 51.221C433.735 52.645 433.319 54.603 433.319 57.095C433.319 61.367 434.832 63.503 437.858 63.503Z" fill="#EA79EC"/>
<path d="M532.327 22.563C536.955 22.563 540.693 24.4616 543.541 28.259C546.389 32.0563 547.813 37.604 547.813 44.902C547.813 54.336 545.914 61.1 542.117 65.194C538.32 69.2287 533.306 71.246 527.076 71.246C525.177 71.246 523.575 71.1867 522.27 71.068C521.024 70.9493 519.867 70.6527 518.799 70.178C516.604 69.288 514.319 68.843 511.946 68.843C510.166 68.843 508.505 69.0803 506.962 69.555C505.419 70.0297 504.233 70.6526 503.402 71.424L502.156 70.534C502.571 69.288 502.779 67.6563 502.779 65.639V11.082C502.779 8.35265 502.393 6.36498 501.622 5.11898C500.91 3.87298 499.634 3.24998 497.795 3.24998V1.38098C499.634 1.55898 501.474 1.64798 503.313 1.64798C509.484 1.64798 514.646 1.23265 518.799 0.401978V29.238C521.528 24.788 526.038 22.563 532.327 22.563ZM522.982 69.466C528.441 69.466 531.17 61.9603 531.17 46.949C531.17 39.651 530.636 34.5483 529.568 31.641C528.5 28.6743 527.046 27.191 525.207 27.191C523.486 27.191 521.973 27.814 520.668 29.06C519.422 30.2466 518.799 31.7596 518.799 33.599V68.398C520.164 69.11 521.558 69.466 522.982 69.466Z" fill="#EA79EC"/>
<path d="M579.371 61.545C583.702 61.545 587.292 59.5573 590.14 55.582L591.653 56.116C590.348 60.2693 588.123 63.8293 584.978 66.796C581.893 69.7626 577.917 71.246 573.052 71.246C566.822 71.246 561.838 69.3177 558.1 65.461C554.362 61.6043 552.493 55.4336 552.493 46.949C552.493 38.8203 554.57 32.7386 558.723 28.704C562.936 24.61 568.483 22.563 575.366 22.563C586.58 22.563 592.187 29.2083 592.187 42.499H569.225C569.166 43.211 569.136 44.279 569.136 45.703C569.136 51.399 570.115 55.4633 572.073 57.896C574.09 60.3286 576.523 61.545 579.371 61.545ZM574.743 24.61C571.42 24.61 569.462 30.0093 568.869 40.808H579.193C579.252 36.0613 578.896 32.175 578.125 29.149C577.413 26.123 576.286 24.61 574.743 24.61Z" fill="#EA79EC"/>
</svg>
