<svg width="123" height="19" viewBox="0 0 123 19" fill="none" xmlns="http://www.w3.org/2000/svg">
<path d="M7.308 5.406C8.244 5.406 9 5.79 9.576 6.558C10.152 7.326 10.44 8.448 10.44 9.924C10.44 11.832 10.056 13.2 9.288 14.028C8.52 14.844 7.506 15.252 6.246 15.252C5.55 15.252 4.992 15.138 4.572 14.91V16.404C4.572 16.956 4.698 17.34 4.95 17.556C5.214 17.772 5.604 17.88 6.12 17.88V18.258L5.598 18.24C4.158 18.204 3.228 18.186 2.808 18.186C2.448 18.186 1.62 18.21 0.324 18.258V17.88C0.696 17.88 0.954 17.784 1.098 17.592C1.254 17.412 1.332 17.076 1.332 16.584V7.638C1.332 7.086 1.254 6.684 1.098 6.432C0.954 6.18 0.696 6.054 0.324 6.054V5.676C0.696 5.712 1.068 5.73 1.44 5.73C2.688 5.73 3.732 5.646 4.572 5.478V6.756C5.124 5.856 6.036 5.406 7.308 5.406ZM5.202 14.712C5.862 14.712 6.336 14.358 6.624 13.65C6.924 12.93 7.074 11.826 7.074 10.338C7.074 8.862 6.966 7.83 6.75 7.242C6.534 6.642 6.24 6.342 5.868 6.342C5.52 6.342 5.214 6.468 4.95 6.72C4.698 6.96 4.572 7.266 4.572 7.638V14.568C4.728 14.664 4.938 14.712 5.202 14.712ZM15.8455 5.406C17.3215 5.406 18.4615 5.796 19.2655 6.576C20.0695 7.344 20.4715 8.598 20.4715 10.338C20.4715 12.078 20.0695 13.332 19.2655 14.1C18.4615 14.868 17.3215 15.252 15.8455 15.252C14.3695 15.252 13.2295 14.868 12.4255 14.1C11.6215 13.332 11.2195 12.078 11.2195 10.338C11.2195 8.598 11.6215 7.344 12.4255 6.576C13.2295 5.796 14.3695 5.406 15.8455 5.406ZM15.8455 5.766C15.4615 5.766 15.1555 6.144 14.9275 6.9C14.6995 7.656 14.5855 8.802 14.5855 10.338C14.5855 11.874 14.6995 13.02 14.9275 13.776C15.1555 14.52 15.4615 14.892 15.8455 14.892C16.2295 14.892 16.5355 14.52 16.7635 13.776C16.9915 13.02 17.1055 11.874 17.1055 10.338C17.1055 8.802 16.9915 7.656 16.7635 6.9C16.5355 6.144 16.2295 5.766 15.8455 5.766ZM24.8306 5.406C25.2986 5.406 25.7366 5.46 26.1446 5.568C26.5646 5.664 26.8826 5.772 27.0986 5.892C27.2306 5.964 27.3386 6 27.4226 6C27.6746 6 27.8246 5.808 27.8726 5.424H28.2326C28.1846 6.048 28.1606 7.128 28.1606 8.664H27.8006C27.7046 7.872 27.4766 7.206 27.1166 6.666C26.7686 6.114 26.2586 5.838 25.5866 5.838C25.2866 5.838 25.0346 5.928 24.8306 6.108C24.6266 6.288 24.5246 6.534 24.5246 6.846C24.5246 7.242 24.6566 7.596 24.9206 7.908C25.1846 8.208 25.5986 8.58 26.1626 9.024C26.1866 9.036 26.3606 9.174 26.6846 9.438C27.3566 9.99 27.8486 10.482 28.1606 10.914C28.4726 11.334 28.6286 11.856 28.6286 12.48C28.6286 13.008 28.4666 13.488 28.1426 13.92C27.8186 14.34 27.3746 14.67 26.8106 14.91C26.2586 15.138 25.6526 15.252 24.9926 15.252C24.2366 15.252 23.6186 15.102 23.1386 14.802C22.9346 14.694 22.7666 14.616 22.6346 14.568C22.5026 14.52 22.3706 14.496 22.2386 14.496C22.0106 14.496 21.8426 14.706 21.7346 15.126H21.3746C21.4226 14.442 21.4466 13.242 21.4466 11.526H21.8066C21.9146 12.51 22.1786 13.302 22.5986 13.902C23.0186 14.502 23.5466 14.802 24.1826 14.802C24.4826 14.802 24.7286 14.718 24.9206 14.55C25.1246 14.382 25.2266 14.136 25.2266 13.812C25.2266 13.476 25.1546 13.176 25.0106 12.912C24.8786 12.648 24.7106 12.414 24.5066 12.21C24.3146 11.994 23.9966 11.688 23.5526 11.292C23.0486 10.824 22.6646 10.452 22.4006 10.176C22.1366 9.9 21.9086 9.582 21.7166 9.222C21.5366 8.85 21.4466 8.442 21.4466 7.998C21.4466 7.482 21.6026 7.026 21.9146 6.63C22.2266 6.234 22.6406 5.934 23.1566 5.73C23.6726 5.514 24.2306 5.406 24.8306 5.406ZM32.9608 5.406C33.4288 5.406 33.8668 5.46 34.2748 5.568C34.6948 5.664 35.0128 5.772 35.2288 5.892C35.3608 5.964 35.4688 6 35.5528 6C35.8048 6 35.9548 5.808 36.0028 5.424H36.3628C36.3148 6.048 36.2908 7.128 36.2908 8.664H35.9308C35.8348 7.872 35.6068 7.206 35.2468 6.666C34.8988 6.114 34.3888 5.838 33.7168 5.838C33.4168 5.838 33.1648 5.928 32.9608 6.108C32.7568 6.288 32.6548 6.534 32.6548 6.846C32.6548 7.242 32.7868 7.596 33.0508 7.908C33.3148 8.208 33.7288 8.58 34.2928 9.024C34.3168 9.036 34.4908 9.174 34.8148 9.438C35.4868 9.99 35.9788 10.482 36.2908 10.914C36.6028 11.334 36.7588 11.856 36.7588 12.48C36.7588 13.008 36.5968 13.488 36.2728 13.92C35.9488 14.34 35.5048 14.67 34.9408 14.91C34.3888 15.138 33.7828 15.252 33.1228 15.252C32.3668 15.252 31.7488 15.102 31.2688 14.802C31.0648 14.694 30.8968 14.616 30.7648 14.568C30.6328 14.52 30.5008 14.496 30.3688 14.496C30.1408 14.496 29.9728 14.706 29.8648 15.126H29.5048C29.5528 14.442 29.5768 13.242 29.5768 11.526H29.9368C30.0448 12.51 30.3088 13.302 30.7288 13.902C31.1488 14.502 31.6768 14.802 32.3128 14.802C32.6128 14.802 32.8588 14.718 33.0508 14.55C33.2548 14.382 33.3568 14.136 33.3568 13.812C33.3568 13.476 33.2848 13.176 33.1408 12.912C33.0088 12.648 32.8408 12.414 32.6368 12.21C32.4448 11.994 32.1268 11.688 31.6828 11.292C31.1788 10.824 30.7948 10.452 30.5308 10.176C30.2668 9.9 30.0388 9.582 29.8468 9.222C29.6668 8.85 29.5768 8.442 29.5768 7.998C29.5768 7.482 29.7328 7.026 30.0448 6.63C30.3568 6.234 30.7708 5.934 31.2868 5.73C31.8028 5.514 32.3608 5.406 32.9608 5.406ZM39.831 0.923999C40.455 0.923999 40.935 1.056 41.271 1.32C41.619 1.584 41.793 1.968 41.793 2.472C41.793 2.976 41.619 3.36 41.271 3.624C40.935 3.888 40.455 4.02 39.831 4.02C39.195 4.02 38.709 3.888 38.373 3.624C38.037 3.36 37.869 2.976 37.869 2.472C37.869 1.968 38.037 1.584 38.373 1.32C38.709 1.056 39.195 0.923999 39.831 0.923999ZM41.559 13.326C41.559 13.818 41.631 14.16 41.775 14.352C41.931 14.532 42.195 14.622 42.567 14.622V15C41.271 14.952 40.419 14.928 40.011 14.928C39.603 14.928 38.703 14.952 37.311 15V14.622C37.683 14.622 37.941 14.532 38.085 14.352C38.241 14.16 38.319 13.818 38.319 13.326V7.62C38.319 7.068 38.241 6.666 38.085 6.414C37.941 6.162 37.683 6.036 37.311 6.036V5.658C37.695 5.694 38.067 5.712 38.427 5.712C39.675 5.712 40.719 5.628 41.559 5.46V13.326ZM49.6245 5.406C50.5605 5.406 51.3165 5.79 51.8925 6.558C52.4685 7.326 52.7565 8.448 52.7565 9.924C52.7565 11.832 52.3725 13.2 51.6045 14.028C50.8365 14.844 49.8225 15.252 48.5625 15.252C48.1785 15.252 47.8545 15.24 47.5905 15.216C47.3385 15.192 47.1045 15.132 46.8885 15.036C46.4445 14.856 45.9825 14.766 45.5025 14.766C45.1425 14.766 44.8065 14.814 44.4945 14.91C44.1825 15.006 43.9425 15.132 43.7745 15.288L43.5225 15.108C43.6065 14.856 43.6485 14.526 43.6485 14.118V3.084C43.6485 2.532 43.5705 2.13 43.4145 1.878C43.2705 1.626 43.0125 1.5 42.6405 1.5V1.122C43.0125 1.158 43.3845 1.176 43.7565 1.176C45.0045 1.176 46.0485 1.092 46.8885 0.923999V6.756C47.4405 5.856 48.3525 5.406 49.6245 5.406ZM47.7345 14.892C48.8385 14.892 49.3905 13.374 49.3905 10.338C49.3905 8.862 49.2825 7.83 49.0665 7.242C48.8505 6.642 48.5565 6.342 48.1845 6.342C47.8365 6.342 47.5305 6.468 47.2665 6.72C47.0145 6.96 46.8885 7.266 46.8885 7.638V14.676C47.1645 14.82 47.4465 14.892 47.7345 14.892ZM57.3612 13.326C57.3612 13.818 57.4332 14.16 57.5772 14.352C57.7332 14.532 57.9972 14.622 58.3692 14.622V15C57.0732 14.952 56.2212 14.928 55.8132 14.928C55.4052 14.928 54.5052 14.952 53.1132 15V14.622C53.4852 14.622 53.7432 14.532 53.8872 14.352C54.0432 14.16 54.1212 13.818 54.1212 13.326V3.084C54.1212 2.532 54.0432 2.13 53.8872 1.878C53.7432 1.626 53.4852 1.5 53.1132 1.5V1.122C53.4852 1.158 53.8572 1.176 54.2292 1.176C55.4772 1.176 56.5212 1.092 57.3612 0.923999V13.326ZM66.3995 5.73C67.0835 5.73 67.5455 5.706 67.7855 5.658V6.036C67.5335 6.12 67.2995 6.294 67.0835 6.558C66.8795 6.822 66.6875 7.23 66.5075 7.782L64.2575 14.478L63.5015 16.656C63.2855 17.28 63.0215 17.712 62.7095 17.952C62.3375 18.24 61.7795 18.384 61.0355 18.384C60.4355 18.384 59.8775 18.24 59.3615 17.952C58.8455 17.676 58.5875 17.256 58.5875 16.692C58.5875 16.272 58.7495 15.936 59.0735 15.684C59.3975 15.432 59.8235 15.306 60.3515 15.306C60.8555 15.306 61.2515 15.42 61.5395 15.648C61.8275 15.876 61.9715 16.206 61.9715 16.638C61.9715 16.926 61.8695 17.196 61.6655 17.448C61.4735 17.712 61.1855 17.904 60.8015 18.024C60.9215 18.048 61.1255 18.06 61.4135 18.06C62.2415 18.06 62.8115 17.58 63.1235 16.62L63.2135 16.314L59.0195 7.044C58.8395 6.636 58.6595 6.366 58.4795 6.234C58.3115 6.102 58.1435 6.036 57.9755 6.036V5.658C58.9355 5.73 59.9135 5.766 60.9095 5.766C61.6895 5.766 62.5595 5.73 63.5195 5.658V6.036C63.1715 6.036 62.9015 6.06 62.7095 6.108C62.5295 6.156 62.4395 6.264 62.4395 6.432C62.4395 6.528 62.4635 6.624 62.5115 6.72L64.7255 11.994L65.4815 9.69C65.7095 8.994 65.8235 8.382 65.8235 7.854C65.8235 7.29 65.7035 6.852 65.4635 6.54C65.2235 6.228 64.9055 6.06 64.5095 6.036V5.658C64.9535 5.706 65.5835 5.73 66.3995 5.73Z" fill="#AED0D2"/>
<path d="M82.3708 12.084H82.7128L82.2628 13.398C81.8308 14.634 80.9728 15.252 79.6888 15.252C78.8848 15.252 78.3268 15 78.0148 14.496C77.8588 14.22 77.7808 13.908 77.7808 13.56C77.7808 13.164 77.8708 12.696 78.0508 12.156L79.5988 7.494C79.6828 7.254 79.7248 7.062 79.7248 6.918C79.7248 6.774 79.6768 6.702 79.5808 6.702C79.2088 6.702 78.7408 7.152 78.1768 8.052C77.6128 8.952 77.0128 10.416 76.3768 12.444L75.6388 15H72.4348L74.5948 7.494C74.6188 7.422 74.6488 7.32 74.6848 7.188C74.7208 7.056 74.7388 6.954 74.7388 6.882C74.7388 6.762 74.6788 6.702 74.5588 6.702C74.1268 6.702 73.6408 7.194 73.1008 8.178C72.5728 9.15 72.0208 10.518 71.4448 12.282L70.7428 15H67.5568L69.7528 7.188C69.8008 7.008 69.8248 6.858 69.8248 6.738C69.8248 6.63 69.8008 6.552 69.7528 6.504C69.7168 6.456 69.6508 6.432 69.5548 6.432C69.2068 6.432 68.8888 6.81 68.6008 7.566L68.1868 8.664H67.8448L68.3488 7.26C68.5768 6.624 68.9188 6.156 69.3748 5.856C69.8308 5.556 70.3528 5.406 70.9408 5.406C71.5648 5.406 72.0148 5.556 72.2908 5.856C72.5668 6.156 72.7048 6.552 72.7048 7.044C72.7048 7.272 72.6628 7.566 72.5788 7.926L72.3628 8.736C72.8788 7.56 73.4428 6.714 74.0548 6.198C74.6668 5.67 75.3988 5.406 76.2508 5.406C77.3068 5.406 77.8348 5.886 77.8348 6.846C77.8348 7.206 77.7628 7.632 77.6188 8.124L77.5288 8.466C78.0568 7.314 78.6148 6.516 79.2028 6.072C79.8028 5.628 80.4808 5.406 81.2368 5.406C82.3168 5.406 82.8568 5.88 82.8568 6.828C82.8568 7.188 82.7728 7.62 82.6048 8.124L80.8228 13.47C80.7628 13.674 80.7328 13.818 80.7328 13.902C80.7328 14.118 80.8348 14.226 81.0388 14.226C81.3868 14.226 81.7048 13.848 81.9928 13.092L82.3708 12.084ZM92.8418 12.084H93.1838L92.7338 13.398C92.3018 14.634 91.4438 15.252 90.1598 15.252C89.4278 15.252 88.9058 15.042 88.5938 14.622C88.3898 14.322 88.2878 13.956 88.2878 13.524C88.2878 13.392 88.2938 13.29 88.3058 13.218C88.0178 13.95 87.6458 14.472 87.1898 14.784C86.7338 15.096 86.1938 15.252 85.5698 15.252C84.8258 15.252 84.2678 15.06 83.8958 14.676C83.5238 14.292 83.3378 13.734 83.3378 13.002C83.3378 11.874 83.6378 10.716 84.2378 9.528C84.8498 8.34 85.6058 7.356 86.5058 6.576C87.4178 5.796 88.2878 5.406 89.1158 5.406C89.7998 5.406 90.1718 5.748 90.2318 6.432L90.4658 5.676C91.6298 5.664 92.7158 5.574 93.7238 5.406L91.2938 13.47C91.2458 13.626 91.2218 13.77 91.2218 13.902C91.2218 14.118 91.3178 14.226 91.5098 14.226C91.8578 14.226 92.1758 13.848 92.4638 13.092L92.8418 12.084ZM87.1358 14.028C87.3878 14.028 87.6398 13.836 87.8918 13.452C88.1438 13.068 88.4318 12.378 88.7558 11.382L90.0518 7.062C90.0638 7.002 90.0698 6.912 90.0698 6.792C90.0698 6.456 89.9558 6.288 89.7278 6.288C89.3918 6.288 88.9778 6.636 88.4858 7.332C88.0058 8.028 87.5918 8.904 87.2438 9.96C86.8958 11.016 86.7218 12.054 86.7218 13.074C86.7218 13.422 86.7518 13.668 86.8118 13.812C86.8718 13.956 86.9798 14.028 87.1358 14.028ZM101.122 5.406C102.034 5.406 102.49 5.988 102.49 7.152C102.49 8.196 102.142 9.462 101.446 10.95C100.762 12.426 99.9283 13.752 98.9443 14.928C98.1883 15.828 97.3963 16.554 96.5683 17.106C95.7523 17.67 94.9363 18.048 94.1203 18.24C93.7123 18.336 93.3583 18.384 93.0583 18.384C92.5783 18.384 92.2123 18.276 91.9603 18.06C91.6963 17.856 91.5643 17.568 91.5643 17.196C91.5643 16.836 91.6963 16.524 91.9603 16.26C92.2243 16.008 92.5723 15.882 93.0043 15.882C93.8683 15.882 94.6063 16.41 95.2183 17.466C95.9983 17.118 96.6943 16.668 97.3063 16.116L95.8483 7.206C95.7883 6.894 95.7343 6.69 95.6863 6.594C95.6503 6.486 95.5783 6.432 95.4703 6.432C95.3503 6.432 95.2423 6.504 95.1463 6.648C95.0623 6.792 94.9303 7.098 94.7503 7.566L94.3723 8.574H94.0303L94.4803 7.26C94.7203 6.576 95.0263 6.096 95.3983 5.82C95.7823 5.544 96.2503 5.406 96.8023 5.406C97.4023 5.406 97.8763 5.568 98.2243 5.892C98.5723 6.204 98.8063 6.756 98.9263 7.548L99.7003 13.308C100.492 12.156 101.122 10.92 101.59 9.6C101.026 9.288 100.57 8.892 100.222 8.412C99.8863 7.932 99.7183 7.422 99.7183 6.882C99.7183 6.426 99.8383 6.066 100.078 5.802C100.33 5.538 100.678 5.406 101.122 5.406ZM110.111 5.406C110.939 5.406 111.557 5.658 111.965 6.162C112.373 6.666 112.577 7.392 112.577 8.34C112.577 9.324 112.337 10.356 111.857 11.436C111.389 12.516 110.711 13.422 109.823 14.154C108.935 14.886 107.915 15.252 106.763 15.252C106.475 15.252 106.205 15.216 105.953 15.144C105.701 15.072 105.491 14.976 105.323 14.856C105.083 14.796 104.849 14.766 104.621 14.766C103.997 14.766 103.235 14.94 102.335 15.288L102.065 15.162C102.209 14.874 102.341 14.52 102.461 14.1L105.773 2.994C105.833 2.778 105.863 2.61 105.863 2.49C105.863 2.25 105.767 2.076 105.575 1.968C105.395 1.86 105.083 1.806 104.639 1.806L104.765 1.428C105.713 1.416 106.571 1.35 107.339 1.23C108.107 1.11 108.857 0.929999 109.589 0.69L107.663 7.224C108.011 6.6 108.383 6.144 108.779 5.856C109.175 5.556 109.619 5.406 110.111 5.406ZM105.953 14.658C106.469 14.658 106.979 14.286 107.483 13.542C107.999 12.786 108.419 11.856 108.743 10.752C109.067 9.648 109.229 8.61 109.229 7.638C109.229 7.242 109.193 6.972 109.121 6.828C109.061 6.684 108.953 6.612 108.797 6.612C108.569 6.612 108.329 6.762 108.077 7.062C107.825 7.35 107.579 7.758 107.339 8.286L105.485 14.586C105.677 14.634 105.833 14.658 105.953 14.658ZM122.049 6.99C122.049 7.998 121.485 8.88 120.357 9.636C119.241 10.38 117.909 10.932 116.361 11.292C116.325 11.616 116.307 11.922 116.307 12.21C116.307 12.87 116.433 13.326 116.685 13.578C116.937 13.83 117.309 13.956 117.801 13.956C118.101 13.956 118.485 13.854 118.953 13.65C119.433 13.446 119.889 13.128 120.321 12.696L120.609 12.84C120.153 13.524 119.535 14.1 118.755 14.568C117.975 15.024 117.075 15.252 116.055 15.252C115.167 15.252 114.423 15.03 113.823 14.586C113.235 14.142 112.941 13.518 112.941 12.714C112.941 11.538 113.241 10.386 113.841 9.258C114.453 8.118 115.281 7.194 116.325 6.486C117.381 5.766 118.545 5.406 119.817 5.406C120.489 5.406 121.029 5.544 121.437 5.82C121.845 6.084 122.049 6.474 122.049 6.99ZM119.421 5.748C119.085 5.748 118.707 6.006 118.287 6.522C117.879 7.038 117.501 7.704 117.153 8.52C116.805 9.336 116.559 10.152 116.415 10.968C117.051 10.596 117.603 10.188 118.071 9.744C118.575 9.252 118.971 8.706 119.259 8.106C119.559 7.506 119.709 6.87 119.709 6.198C119.709 5.898 119.613 5.748 119.421 5.748Z" fill="#EA79EC"/>
</svg>
